<?xml version="1.0" standalone="no"?>
<!DOCTYPE svg PUBLIC "-//W3C//DTD SVG 20010904//EN"
 "http://www.w3.org/TR/2001/REC-SVG-20010904/DTD/svg10.dtd">
<svg version="1.0" xmlns="http://www.w3.org/2000/svg"
 width="256.000000pt" height="256.000000pt" viewBox="0 0 256.000000 256.000000"
 preserveAspectRatio="xMidYMid meet">
<metadata>
Created by potrace 1.11, written by Peter Selinger 2001-2013
</metadata>
<g transform="translate(0.000000,256.000000) scale(0.100000,-0.100000)"
fill="#000000" stroke="none">
<path d="M1987 2055 c-103 -69 -187 -127 -187 -130 0 -6 177 -125 187 -125 4
0 49 28 100 61 l93 62 0 128 c0 71 -1 129 -3 129 -1 0 -86 -56 -190 -125z"/>
<path d="M822 1873 l-442 -296 185 -124 c102 -67 188 -123 192 -123 5 0 109
67 232 149 l223 149 -92 62 -92 62 117 78 118 78 254 -170 c141 -93 251 -173
247 -178 -5 -4 -193 -130 -419 -280 -225 -150 -414 -276 -418 -280 -7 -6 170
-130 186 -130 4 0 246 159 537 353 l530 354 -445 296 c-245 164 -451 297 -457
296 -7 0 -212 -134 -456 -296z"/>
<path d="M907 1336 l-527 -353 445 -296 c245 -164 449 -297 455 -297 6 0 210
133 455 297 l445 296 -185 124 c-102 67 -188 123 -192 123 -5 0 -109 -67 -232
-149 l-223 -149 92 -62 92 -62 -117 -78 -118 -78 -254 170 c-141 93 -251 173
-247 178 5 4 193 130 419 280 226 150 414 276 418 280 8 7 -171 131 -188 129
-6 0 -247 -159 -538 -353z"/>
<path d="M473 699 l-93 -62 0 -129 c0 -101 3 -128 13 -122 45 27 367 245 367
249 0 6 -178 125 -187 125 -4 0 -50 -28 -100 -61z"/>
</g>
</svg>
